<svg xmlns="http://www.w3.org/2000/svg" viewBox="0 0 900 560"><rect width="900" height="560" rx="30" fill="#f8fafc"/><rect x="42" y="400" width="820" height="26" rx="13" fill="#dbeafe"/><g transform="translate(74 130)"><rect width="245" height="260" rx="14" fill="#fff" stroke="#cbd5e1" stroke-width="5"/><path d="M0 42h245" stroke="#e2e8f0" stroke-width="4"/><rect x="33" y="83" width="175" height="24" rx="8" fill="#93c5fd"/><rect x="33" y="126" width="150" height="18" rx="7" fill="#bbf7d0"/><rect x="33" y="164" width="180" height="18" rx="7" fill="#e2e8f0"/><rect x="33" y="202" width="116" height="18" rx="7" fill="#e2e8f0"/><text x="32" y="54" font-family="Arial" font-size="28" font-weight="800" fill="#0f172a">A4</text></g><g transform="translate(375 156)"><ellipse cx="140" cy="112" rx="92" ry="92" fill="#bfdbfe"/><circle cx="116" cy="112" r="62" fill="#fff" stroke="#94a3b8" stroke-width="16"/><rect x="115" y="78" width="230" height="70" rx="14" fill="#0f766e"/><rect x="155" y="98" width="145" height="15" rx="7" fill="#ccfbf1"/><rect x="155" y="126" width="115" height="13" rx="6" fill="#ccfbf1"/></g><g transform="translate(656 96)"><rect x="54" y="24" width="85" height="308" rx="42" fill="#111827"/><rect x="42" y="19" width="85" height="308" rx="42" fill="#f8fafc" stroke="#334155" stroke-width="5"/><rect x="68" y="38" width="34" height="270" rx="17" fill="#d6b06c"/><rect x="25" y="286" width="190" height="36" rx="18" fill="#dcfce7"/></g></svg>